<mxfile host="65bd71144e">
    <diagram id="mREL2RsGELYM_3oBmQz2" name="Page-1">
        <mxGraphModel dx="1595" dy="976" grid="1" gridSize="10" guides="1" tooltips="1" connect="1" arrows="1" fold="1" page="0" pageScale="1" pageWidth="1169" pageHeight="1654" background="#FFFFFF" math="0" shadow="0">
            <root>
                <mxCell id="0"/>
                <mxCell id="1" parent="0"/>
                <mxCell id="4" value="&lt;font style=&quot;font-size: 36px&quot;&gt;Linea de tiempo&lt;/font&gt;" style="text;html=1;resizable=0;autosize=1;align=center;verticalAlign=middle;points=[];fillColor=none;strokeColor=none;rounded=0;fontColor=#000000;" vertex="1" parent="1">
                    <mxGeometry x="430" y="142.5" width="270" height="30" as="geometry"/>
                </mxCell>
                <mxCell id="9" value="" style="rounded=0;whiteSpace=wrap;html=1;strokeColor=#F01800;fontColor=#000000;" vertex="1" parent="1">
                    <mxGeometry x="530" y="302.5" width="1080" height="20" as="geometry"/>
                </mxCell>
                <mxCell id="10" value="" style="rounded=0;whiteSpace=wrap;html=1;strokeColor=#F01800;fontColor=#000000;" vertex="1" parent="1">
                    <mxGeometry x="880" y="232.5" width="10" height="70" as="geometry"/>
                </mxCell>
                <mxCell id="13" value="&lt;font style=&quot;font-size: 24px&quot;&gt;Fi&lt;/font&gt;" style="text;html=1;align=center;verticalAlign=middle;resizable=0;points=[];autosize=1;strokeColor=#F01800;fillColor=none;fontSize=36;fontColor=#000000;" vertex="1" parent="1">
                    <mxGeometry x="865" y="172.5" width="40" height="50" as="geometry"/>
                </mxCell>
                <mxCell id="14" value="" style="rounded=0;whiteSpace=wrap;html=1;strokeColor=#F01800;fontColor=#000000;" vertex="1" parent="1">
                    <mxGeometry x="1345" y="232.5" width="10" height="70" as="geometry"/>
                </mxCell>
                <mxCell id="15" value="&lt;font style=&quot;font-size: 24px&quot;&gt;Ff&lt;/font&gt;" style="text;html=1;align=center;verticalAlign=middle;resizable=0;points=[];autosize=1;strokeColor=#F01800;fillColor=none;fontSize=36;fontColor=#000000;" vertex="1" parent="1">
                    <mxGeometry x="1330" y="172.5" width="40" height="50" as="geometry"/>
                </mxCell>
                <mxCell id="16" value="" style="shape=crossbar;whiteSpace=wrap;html=1;rounded=1;direction=south;fontSize=24;rotation=90;fillColor=#2A0000;fontColor=#000000;strokeColor=#000000;" vertex="1" parent="1">
                    <mxGeometry x="845" y="182.5" width="20" height="360" as="geometry"/>
                </mxCell>
                <mxCell id="17" value="" style="shape=crossbar;whiteSpace=wrap;html=1;rounded=1;direction=south;fontSize=24;rotation=90;fillColor=#2A0000;fontColor=#000000;strokeColor=#000000;" vertex="1" parent="1">
                    <mxGeometry x="1295" y="212.5" width="20" height="300" as="geometry"/>
                </mxCell>
                <mxCell id="18" value="" style="shape=crossbar;whiteSpace=wrap;html=1;rounded=1;direction=south;fontSize=24;rotation=90;fillColor=#2A0000;fontColor=#000000;strokeColor=#000000;" vertex="1" parent="1">
                    <mxGeometry x="1042.5" width="20" height="865" as="geometry"/>
                </mxCell>
                <mxCell id="19" value="" style="shape=crossbar;whiteSpace=wrap;html=1;rounded=1;direction=south;fontSize=24;rotation=90;fillColor=#2A0000;fontColor=#000000;strokeColor=#000000;" vertex="1" parent="1">
                    <mxGeometry x="690" y="372.5" width="20" height="260" as="geometry"/>
                </mxCell>
                <mxCell id="20" value="" style="shape=crossbar;whiteSpace=wrap;html=1;rounded=1;direction=south;fontSize=24;rotation=90;fillColor=#2A0000;fontColor=#000000;strokeColor=#000000;" vertex="1" parent="1">
                    <mxGeometry x="1550" y="372.5" width="20" height="260" as="geometry"/>
                </mxCell>
                <mxCell id="21" value="" style="shape=crossbar;whiteSpace=wrap;html=1;rounded=1;direction=south;fontSize=24;rotation=90;fillColor=#2A0000;fontColor=#000000;strokeColor=#000000;" vertex="1" parent="1">
                    <mxGeometry x="1110" y="337.5" width="20" height="330" as="geometry"/>
                </mxCell>
                <mxCell id="22" value="P1&lt;br&gt;" style="text;html=1;align=center;verticalAlign=middle;resizable=0;points=[];autosize=1;strokeColor=none;fillColor=none;fontSize=24;fontColor=#000000;" vertex="1" parent="1">
                    <mxGeometry x="825" y="362.5" width="40" height="30" as="geometry"/>
                </mxCell>
                <mxCell id="23" value="P3" style="text;html=1;align=center;verticalAlign=middle;resizable=0;points=[];autosize=1;strokeColor=none;fillColor=none;fontSize=24;fontColor=#000000;" vertex="1" parent="1">
                    <mxGeometry x="1060" y="432.5" width="40" height="30" as="geometry"/>
                </mxCell>
                <mxCell id="24" value="P2" style="text;html=1;align=center;verticalAlign=middle;resizable=0;points=[];autosize=1;strokeColor=none;fillColor=none;fontSize=24;fontColor=#000000;" vertex="1" parent="1">
                    <mxGeometry x="1285" y="362.5" width="40" height="30" as="geometry"/>
                </mxCell>
                <mxCell id="25" value="N1" style="text;html=1;align=center;verticalAlign=middle;resizable=0;points=[];autosize=1;strokeColor=none;fillColor=none;fontSize=24;fontColor=#000000;" vertex="1" parent="1">
                    <mxGeometry x="675" y="502.5" width="50" height="30" as="geometry"/>
                </mxCell>
                <mxCell id="26" value="N1" style="text;html=1;align=center;verticalAlign=middle;resizable=0;points=[];autosize=1;strokeColor=none;fillColor=none;fontSize=24;fontColor=#000000;" vertex="1" parent="1">
                    <mxGeometry x="1535" y="502.5" width="50" height="30" as="geometry"/>
                </mxCell>
                <mxCell id="27" value="P4" style="text;html=1;align=center;verticalAlign=middle;resizable=0;points=[];autosize=1;strokeColor=none;fillColor=none;fontSize=24;fontColor=#000000;" vertex="1" parent="1">
                    <mxGeometry x="1100" y="502.5" width="40" height="30" as="geometry"/>
                </mxCell>
                <mxCell id="28" value="&lt;span style=&quot;font-size: 18px&quot;&gt;Ri&lt;/span&gt;" style="text;html=1;align=center;verticalAlign=middle;resizable=0;points=[];autosize=1;strokeColor=none;fillColor=none;fontSize=24;fontColor=#000000;" vertex="1" parent="1">
                    <mxGeometry x="540" y="472.5" width="30" height="40" as="geometry"/>
                </mxCell>
                <mxCell id="29" value="&lt;span style=&quot;font-size: 18px&quot;&gt;Ri&lt;/span&gt;" style="text;html=1;align=center;verticalAlign=middle;resizable=0;points=[];autosize=1;strokeColor=none;fillColor=none;fontSize=24;fontColor=#000000;" vertex="1" parent="1">
                    <mxGeometry x="590" y="402.5" width="30" height="40" as="geometry"/>
                </mxCell>
                <mxCell id="30" value="&lt;span style=&quot;font-size: 18px&quot;&gt;Ri&lt;/span&gt;" style="text;html=1;align=center;verticalAlign=middle;resizable=0;points=[];autosize=1;strokeColor=none;fillColor=none;fontSize=24;fontColor=#000000;" vertex="1" parent="1">
                    <mxGeometry x="645" y="337.5" width="30" height="40" as="geometry"/>
                </mxCell>
                <mxCell id="31" value="&lt;span style=&quot;font-size: 18px&quot;&gt;Ri&lt;/span&gt;" style="text;html=1;align=center;verticalAlign=middle;resizable=0;points=[];autosize=1;strokeColor=none;fillColor=none;fontSize=24;fontColor=#000000;" vertex="1" parent="1">
                    <mxGeometry x="930" y="472.5" width="30" height="40" as="geometry"/>
                </mxCell>
                <mxCell id="32" value="&lt;span style=&quot;font-size: 18px&quot;&gt;Ri&lt;/span&gt;" style="text;html=1;align=center;verticalAlign=middle;resizable=0;points=[];autosize=1;strokeColor=none;fillColor=none;fontSize=24;fontColor=#000000;" vertex="1" parent="1">
                    <mxGeometry x="1130" y="332.5" width="30" height="40" as="geometry"/>
                </mxCell>
                <mxCell id="33" value="&lt;span style=&quot;font-size: 18px&quot;&gt;Ri&lt;/span&gt;" style="text;html=1;align=center;verticalAlign=middle;resizable=0;points=[];autosize=1;strokeColor=none;fillColor=none;fontSize=24;fontColor=#000000;" vertex="1" parent="1">
                    <mxGeometry x="1410" y="472.5" width="30" height="40" as="geometry"/>
                </mxCell>
                <mxCell id="34" value="&lt;span style=&quot;font-size: 18px&quot;&gt;Rf&lt;br&gt;&lt;br&gt;&lt;/span&gt;" style="text;html=1;align=center;verticalAlign=middle;resizable=0;points=[];autosize=1;strokeColor=none;fillColor=none;fontSize=24;fontColor=#000000;" vertex="1" parent="1">
                    <mxGeometry x="1030" y="332.5" width="30" height="70" as="geometry"/>
                </mxCell>
                <mxCell id="35" value="&lt;span style=&quot;font-size: 18px&quot;&gt;Rf&lt;br&gt;&lt;br&gt;&lt;/span&gt;" style="text;html=1;align=center;verticalAlign=middle;resizable=0;points=[];autosize=1;strokeColor=none;fillColor=none;fontSize=24;fontColor=#000000;" vertex="1" parent="1">
                    <mxGeometry x="1450" y="327.5" width="30" height="70" as="geometry"/>
                </mxCell>
                <mxCell id="36" value="&lt;span style=&quot;font-size: 18px&quot;&gt;Rf&lt;br&gt;&lt;br&gt;&lt;/span&gt;" style="text;html=1;align=center;verticalAlign=middle;resizable=0;points=[];autosize=1;strokeColor=none;fillColor=none;fontSize=24;fontColor=#000000;" vertex="1" parent="1">
                    <mxGeometry x="1480" y="402.5" width="30" height="70" as="geometry"/>
                </mxCell>
                <mxCell id="37" value="&lt;span style=&quot;font-size: 18px&quot;&gt;Rf&lt;br&gt;&lt;br&gt;&lt;/span&gt;" style="text;html=1;align=center;verticalAlign=middle;resizable=0;points=[];autosize=1;strokeColor=none;fillColor=none;fontSize=24;fontColor=#000000;" vertex="1" parent="1">
                    <mxGeometry x="1285" y="472.5" width="30" height="70" as="geometry"/>
                </mxCell>
                <mxCell id="38" value="&lt;span style=&quot;font-size: 18px&quot;&gt;Rf&lt;br&gt;&lt;br&gt;&lt;/span&gt;" style="text;html=1;align=center;verticalAlign=middle;resizable=0;points=[];autosize=1;strokeColor=none;fillColor=none;fontSize=24;fontColor=#000000;" vertex="1" parent="1">
                    <mxGeometry x="825" y="472.5" width="30" height="70" as="geometry"/>
                </mxCell>
                <mxCell id="39" value="&lt;span style=&quot;font-size: 18px&quot;&gt;Rf&lt;br&gt;&lt;br&gt;&lt;/span&gt;" style="text;html=1;align=center;verticalAlign=middle;resizable=0;points=[];autosize=1;strokeColor=none;fillColor=none;fontSize=24;fontColor=#000000;" vertex="1" parent="1">
                    <mxGeometry x="1690" y="472.5" width="30" height="70" as="geometry"/>
                </mxCell>
                <object label="Table" id="109">
                    <mxCell style="shape=table;startSize=38;container=1;collapsible=0;childLayout=tableLayout;fontStyle=1;align=center;pointerEvents=1;fontSize=18;strokeColor=#F01800;fillColor=#2A0000;fontColor=#000000;" vertex="1" parent="1">
                        <mxGeometry x="490" y="642.5" width="1760" height="477" as="geometry"/>
                    </mxCell>
                </object>
                <mxCell id="110" value="" style="shape=partialRectangle;html=1;whiteSpace=wrap;collapsible=0;dropTarget=0;pointerEvents=0;fillColor=none;top=0;left=0;bottom=0;right=0;points=[[0,0.5],[1,0.5]];portConstraint=eastwest;fontSize=18;strokeColor=#F01800;fontColor=#000000;" vertex="1" parent="109">
                    <mxGeometry y="38" width="1760" height="37" as="geometry"/>
                </mxCell>
                <mxCell id="111" value="Casos" style="shape=partialRectangle;html=1;whiteSpace=wrap;connectable=0;fillColor=none;top=0;left=0;bottom=0;right=0;overflow=hidden;pointerEvents=1;fontSize=18;strokeColor=#F01800;fontColor=#000000;" vertex="1" parent="110">
                    <mxGeometry width="73" height="37" as="geometry">
                        <mxRectangle width="73" height="37" as="alternateBounds"/>
                    </mxGeometry>
                </mxCell>
                <mxCell id="112" value="Descripción" style="shape=partialRectangle;html=1;whiteSpace=wrap;connectable=0;fillColor=none;top=0;left=0;bottom=0;right=0;overflow=hidden;pointerEvents=1;fontSize=18;strokeColor=#F01800;fontColor=#000000;" vertex="1" parent="110">
                    <mxGeometry x="73" width="163" height="37" as="geometry">
                        <mxRectangle width="163" height="37" as="alternateBounds"/>
                    </mxGeometry>
                </mxCell>
                <mxCell id="113" value="Condición Logica" style="shape=partialRectangle;html=1;whiteSpace=wrap;connectable=0;fillColor=none;top=0;left=0;bottom=0;right=0;overflow=hidden;pointerEvents=1;fontSize=18;strokeColor=#F01800;fontColor=#000000;" vertex="1" parent="110">
                    <mxGeometry x="236" width="464" height="37" as="geometry">
                        <mxRectangle width="464" height="37" as="alternateBounds"/>
                    </mxGeometry>
                </mxCell>
                <mxCell id="221" value="Condición Lógica Optimizada" style="shape=partialRectangle;html=1;whiteSpace=wrap;connectable=0;fillColor=none;top=0;left=0;bottom=0;right=0;overflow=hidden;pointerEvents=1;fontSize=18;strokeColor=#F01800;fontColor=#000000;" vertex="1" parent="110">
                    <mxGeometry x="700" width="320" height="37" as="geometry">
                        <mxRectangle width="320" height="37" as="alternateBounds"/>
                    </mxGeometry>
                </mxCell>
                <mxCell id="266" value="Condición Negada (solo negativas)" style="shape=partialRectangle;html=1;whiteSpace=wrap;connectable=0;fillColor=none;top=0;left=0;bottom=0;right=0;overflow=hidden;pointerEvents=1;fontSize=18;strokeColor=#F01800;fontColor=#000000;" vertex="1" parent="110">
                    <mxGeometry x="1020" width="300" height="37" as="geometry">
                        <mxRectangle width="300" height="37" as="alternateBounds"/>
                    </mxGeometry>
                </mxCell>
                <mxCell id="274" style="shape=partialRectangle;html=1;whiteSpace=wrap;connectable=0;fillColor=none;top=0;left=0;bottom=0;right=0;overflow=hidden;pointerEvents=1;fontSize=18;strokeColor=#F01800;fontColor=#000000;" vertex="1" parent="110">
                    <mxGeometry x="1320" width="440" height="37" as="geometry">
                        <mxRectangle width="440" height="37" as="alternateBounds"/>
                    </mxGeometry>
                </mxCell>
                <mxCell id="114" value="" style="shape=partialRectangle;html=1;whiteSpace=wrap;collapsible=0;dropTarget=0;pointerEvents=0;fillColor=none;top=0;left=0;bottom=0;right=0;points=[[0,0.5],[1,0.5]];portConstraint=eastwest;fontSize=18;strokeColor=#F01800;fontColor=#000000;" vertex="1" parent="109">
                    <mxGeometry y="75" width="1760" height="43" as="geometry"/>
                </mxCell>
                <mxCell id="115" value="P1" style="shape=partialRectangle;html=1;whiteSpace=wrap;connectable=0;fillColor=none;top=0;left=0;bottom=0;right=0;overflow=hidden;pointerEvents=1;fontSize=18;strokeColor=#F01800;fontColor=#000000;" vertex="1" parent="114">
                    <mxGeometry width="73" height="43" as="geometry">
                        <mxRectangle width="73" height="43" as="alternateBounds"/>
                    </mxGeometry>
                </mxCell>
                <mxCell id="116" value="" style="shape=partialRectangle;html=1;whiteSpace=wrap;connectable=0;fillColor=none;top=0;left=0;bottom=0;right=0;overflow=hidden;pointerEvents=1;fontSize=18;strokeColor=#F01800;fontColor=#000000;" vertex="1" parent="114">
                    <mxGeometry x="73" width="163" height="43" as="geometry">
                        <mxRectangle width="163" height="43" as="alternateBounds"/>
                    </mxGeometry>
                </mxCell>
                <mxCell id="117" value="(Ri &amp;lt; Fi) and (Rf &amp;gt; Fi) and &lt;font color=&quot;#ff0000&quot;&gt;(Ri &amp;lt; Ff)&lt;/font&gt; and (Rf &amp;lt; Ff)" style="shape=partialRectangle;html=1;whiteSpace=wrap;connectable=0;fillColor=none;top=0;left=0;bottom=0;right=0;overflow=hidden;pointerEvents=1;fontSize=18;strokeColor=#F01800;fontColor=#000000;" vertex="1" parent="114">
                    <mxGeometry x="236" width="464" height="43" as="geometry">
                        <mxRectangle width="464" height="43" as="alternateBounds"/>
                    </mxGeometry>
                </mxCell>
                <mxCell id="222" value="&lt;span&gt;(Ri &amp;lt; Fi) and (Rf &amp;gt; Fi) and&amp;nbsp;&lt;/span&gt;&lt;span&gt;(Rf &amp;lt; Ff)&lt;/span&gt;" style="shape=partialRectangle;html=1;whiteSpace=wrap;connectable=0;fillColor=none;top=0;left=0;bottom=0;right=0;overflow=hidden;pointerEvents=1;fontSize=18;strokeColor=#F01800;fontColor=#000000;" vertex="1" parent="114">
                    <mxGeometry x="700" width="320" height="43" as="geometry">
                        <mxRectangle width="320" height="43" as="alternateBounds"/>
                    </mxGeometry>
                </mxCell>
                <mxCell id="267" style="shape=partialRectangle;html=1;whiteSpace=wrap;connectable=0;fillColor=none;top=0;left=0;bottom=0;right=0;overflow=hidden;pointerEvents=1;fontSize=18;strokeColor=#F01800;fontColor=#000000;" vertex="1" parent="114">
                    <mxGeometry x="1020" width="300" height="43" as="geometry">
                        <mxRectangle width="300" height="43" as="alternateBounds"/>
                    </mxGeometry>
                </mxCell>
                <mxCell id="275" style="shape=partialRectangle;html=1;whiteSpace=wrap;connectable=0;fillColor=none;top=0;left=0;bottom=0;right=0;overflow=hidden;pointerEvents=1;fontSize=18;strokeColor=#F01800;fontColor=#000000;" vertex="1" parent="114">
                    <mxGeometry x="1320" width="440" height="43" as="geometry">
                        <mxRectangle width="440" height="43" as="alternateBounds"/>
                    </mxGeometry>
                </mxCell>
                <mxCell id="135" value="" style="shape=partialRectangle;html=1;whiteSpace=wrap;collapsible=0;dropTarget=0;pointerEvents=0;fillColor=none;top=0;left=0;bottom=0;right=0;points=[[0,0.5],[1,0.5]];portConstraint=eastwest;fontSize=18;strokeColor=#F01800;fontColor=#000000;" vertex="1" parent="109">
                    <mxGeometry y="118" width="1760" height="50" as="geometry"/>
                </mxCell>
                <mxCell id="136" value="P2&lt;br&gt;" style="shape=partialRectangle;html=1;whiteSpace=wrap;connectable=0;fillColor=none;top=0;left=0;bottom=0;right=0;overflow=hidden;pointerEvents=1;fontSize=18;strokeColor=#F01800;fontColor=#000000;" vertex="1" parent="135">
                    <mxGeometry width="73" height="50" as="geometry">
                        <mxRectangle width="73" height="50" as="alternateBounds"/>
                    </mxGeometry>
                </mxCell>
                <mxCell id="137" value="" style="shape=partialRectangle;html=1;whiteSpace=wrap;connectable=0;fillColor=none;top=0;left=0;bottom=0;right=0;overflow=hidden;pointerEvents=1;fontSize=18;strokeColor=#F01800;fontColor=#000000;" vertex="1" parent="135">
                    <mxGeometry x="73" width="163" height="50" as="geometry">
                        <mxRectangle width="163" height="50" as="alternateBounds"/>
                    </mxGeometry>
                </mxCell>
                <mxCell id="138" value="(Ri &amp;gt; Fi) and &lt;font color=&quot;#ff3333&quot;&gt;(Rf &amp;gt; Fi)&lt;/font&gt; and (Ri &amp;lt; Ff) and (Rf &amp;gt; Ff)" style="shape=partialRectangle;html=1;whiteSpace=wrap;connectable=0;fillColor=none;top=0;left=0;bottom=0;right=0;overflow=hidden;pointerEvents=1;fontSize=18;strokeColor=#F01800;fontColor=#000000;" vertex="1" parent="135">
                    <mxGeometry x="236" width="464" height="50" as="geometry">
                        <mxRectangle width="464" height="50" as="alternateBounds"/>
                    </mxGeometry>
                </mxCell>
                <mxCell id="223" value="&lt;span&gt;(Ri &amp;gt; Fi) &lt;/span&gt;&lt;span&gt;and (Ri &amp;lt; Ff) and (Rf &amp;gt; Ff)&lt;/span&gt;" style="shape=partialRectangle;html=1;whiteSpace=wrap;connectable=0;fillColor=none;top=0;left=0;bottom=0;right=0;overflow=hidden;pointerEvents=1;fontSize=18;strokeColor=#F01800;fontColor=#000000;" vertex="1" parent="135">
                    <mxGeometry x="700" width="320" height="50" as="geometry">
                        <mxRectangle width="320" height="50" as="alternateBounds"/>
                    </mxGeometry>
                </mxCell>
                <mxCell id="268" style="shape=partialRectangle;html=1;whiteSpace=wrap;connectable=0;fillColor=none;top=0;left=0;bottom=0;right=0;overflow=hidden;pointerEvents=1;fontSize=18;strokeColor=#F01800;fontColor=#000000;" vertex="1" parent="135">
                    <mxGeometry x="1020" width="300" height="50" as="geometry">
                        <mxRectangle width="300" height="50" as="alternateBounds"/>
                    </mxGeometry>
                </mxCell>
                <mxCell id="276" style="shape=partialRectangle;html=1;whiteSpace=wrap;connectable=0;fillColor=none;top=0;left=0;bottom=0;right=0;overflow=hidden;pointerEvents=1;fontSize=18;strokeColor=#F01800;fontColor=#000000;" vertex="1" parent="135">
                    <mxGeometry x="1320" width="440" height="50" as="geometry">
                        <mxRectangle width="440" height="50" as="alternateBounds"/>
                    </mxGeometry>
                </mxCell>
                <mxCell id="118" value="" style="shape=partialRectangle;html=1;whiteSpace=wrap;collapsible=0;dropTarget=0;pointerEvents=0;fillColor=none;top=0;left=0;bottom=0;right=0;points=[[0,0.5],[1,0.5]];portConstraint=eastwest;fontSize=18;strokeColor=#F01800;fontColor=#000000;" vertex="1" parent="109">
                    <mxGeometry y="168" width="1760" height="50" as="geometry"/>
                </mxCell>
                <mxCell id="119" value="P3&lt;br&gt;" style="shape=partialRectangle;html=1;whiteSpace=wrap;connectable=0;fillColor=none;top=0;left=0;bottom=0;right=0;overflow=hidden;pointerEvents=1;fontSize=18;strokeColor=#F01800;fontColor=#000000;" vertex="1" parent="118">
                    <mxGeometry width="73" height="50" as="geometry">
                        <mxRectangle width="73" height="50" as="alternateBounds"/>
                    </mxGeometry>
                </mxCell>
                <mxCell id="120" value="" style="shape=partialRectangle;html=1;whiteSpace=wrap;connectable=0;fillColor=none;top=0;left=0;bottom=0;right=0;overflow=hidden;pointerEvents=1;fontSize=18;strokeColor=#F01800;fontColor=#000000;" vertex="1" parent="118">
                    <mxGeometry x="73" width="163" height="50" as="geometry">
                        <mxRectangle width="163" height="50" as="alternateBounds"/>
                    </mxGeometry>
                </mxCell>
                <mxCell id="121" value="(Ri &amp;lt; Fi) and &lt;font color=&quot;#ff0000&quot;&gt;(Rf &amp;gt; Fi) and (Ri &amp;lt; Ff)&lt;/font&gt; and (Rf &amp;gt; Ff)" style="shape=partialRectangle;html=1;whiteSpace=wrap;connectable=0;fillColor=none;top=0;left=0;bottom=0;right=0;overflow=hidden;pointerEvents=1;fontSize=18;strokeColor=#F01800;fontColor=#000000;" vertex="1" parent="118">
                    <mxGeometry x="236" width="464" height="50" as="geometry">
                        <mxRectangle width="464" height="50" as="alternateBounds"/>
                    </mxGeometry>
                </mxCell>
                <mxCell id="224" value="&lt;span&gt;(Ri &amp;lt; Fi) a&lt;/span&gt;&lt;span&gt;nd (Rf &amp;gt; Ff)&lt;/span&gt;" style="shape=partialRectangle;html=1;whiteSpace=wrap;connectable=0;fillColor=none;top=0;left=0;bottom=0;right=0;overflow=hidden;pointerEvents=1;fontSize=18;strokeColor=#F01800;fontColor=#000000;" vertex="1" parent="118">
                    <mxGeometry x="700" width="320" height="50" as="geometry">
                        <mxRectangle width="320" height="50" as="alternateBounds"/>
                    </mxGeometry>
                </mxCell>
                <mxCell id="269" style="shape=partialRectangle;html=1;whiteSpace=wrap;connectable=0;fillColor=none;top=0;left=0;bottom=0;right=0;overflow=hidden;pointerEvents=1;fontSize=18;strokeColor=#F01800;fontColor=#000000;" vertex="1" parent="118">
                    <mxGeometry x="1020" width="300" height="50" as="geometry">
                        <mxRectangle width="300" height="50" as="alternateBounds"/>
                    </mxGeometry>
                </mxCell>
                <mxCell id="277" style="shape=partialRectangle;html=1;whiteSpace=wrap;connectable=0;fillColor=none;top=0;left=0;bottom=0;right=0;overflow=hidden;pointerEvents=1;fontSize=18;strokeColor=#F01800;fontColor=#000000;" vertex="1" parent="118">
                    <mxGeometry x="1320" width="440" height="50" as="geometry">
                        <mxRectangle width="440" height="50" as="alternateBounds"/>
                    </mxGeometry>
                </mxCell>
                <mxCell id="149" value="" style="shape=partialRectangle;html=1;whiteSpace=wrap;collapsible=0;dropTarget=0;pointerEvents=0;fillColor=none;top=0;left=0;bottom=0;right=0;points=[[0,0.5],[1,0.5]];portConstraint=eastwest;fontSize=18;strokeColor=#F01800;fontColor=#000000;" vertex="1" parent="109">
                    <mxGeometry y="218" width="1760" height="49" as="geometry"/>
                </mxCell>
                <mxCell id="150" value="P4&lt;br&gt;" style="shape=partialRectangle;html=1;whiteSpace=wrap;connectable=0;fillColor=none;top=0;left=0;bottom=0;right=0;overflow=hidden;pointerEvents=1;fontSize=18;strokeColor=#F01800;fontColor=#000000;" vertex="1" parent="149">
                    <mxGeometry width="73" height="49" as="geometry">
                        <mxRectangle width="73" height="49" as="alternateBounds"/>
                    </mxGeometry>
                </mxCell>
                <mxCell id="151" value="" style="shape=partialRectangle;html=1;whiteSpace=wrap;connectable=0;fillColor=none;top=0;left=0;bottom=0;right=0;overflow=hidden;pointerEvents=1;fontSize=18;strokeColor=#F01800;fontColor=#000000;" vertex="1" parent="149">
                    <mxGeometry x="73" width="163" height="49" as="geometry">
                        <mxRectangle width="163" height="49" as="alternateBounds"/>
                    </mxGeometry>
                </mxCell>
                <mxCell id="152" value="(Ri &amp;gt; Fi) and &lt;font color=&quot;#ff0000&quot;&gt;(Rf &amp;gt; Fi) and (Ri &amp;lt; Ff)&lt;/font&gt; and (Rf &amp;lt; Ff)" style="shape=partialRectangle;html=1;whiteSpace=wrap;connectable=0;fillColor=none;top=0;left=0;bottom=0;right=0;overflow=hidden;pointerEvents=1;fontSize=18;strokeColor=#F01800;fontColor=#000000;" vertex="1" parent="149">
                    <mxGeometry x="236" width="464" height="49" as="geometry">
                        <mxRectangle width="464" height="49" as="alternateBounds"/>
                    </mxGeometry>
                </mxCell>
                <mxCell id="225" value="&lt;span&gt;(Ri &amp;gt; Fi) an&lt;/span&gt;&lt;span&gt;d (Rf &amp;lt; Ff)&lt;/span&gt;" style="shape=partialRectangle;html=1;whiteSpace=wrap;connectable=0;fillColor=none;top=0;left=0;bottom=0;right=0;overflow=hidden;pointerEvents=1;fontSize=18;strokeColor=#F01800;fontColor=#000000;" vertex="1" parent="149">
                    <mxGeometry x="700" width="320" height="49" as="geometry">
                        <mxRectangle width="320" height="49" as="alternateBounds"/>
                    </mxGeometry>
                </mxCell>
                <mxCell id="270" style="shape=partialRectangle;html=1;whiteSpace=wrap;connectable=0;fillColor=none;top=0;left=0;bottom=0;right=0;overflow=hidden;pointerEvents=1;fontSize=18;strokeColor=#F01800;fontColor=#000000;" vertex="1" parent="149">
                    <mxGeometry x="1020" width="300" height="49" as="geometry">
                        <mxRectangle width="300" height="49" as="alternateBounds"/>
                    </mxGeometry>
                </mxCell>
                <mxCell id="278" style="shape=partialRectangle;html=1;whiteSpace=wrap;connectable=0;fillColor=none;top=0;left=0;bottom=0;right=0;overflow=hidden;pointerEvents=1;fontSize=18;strokeColor=#F01800;fontColor=#000000;" vertex="1" parent="149">
                    <mxGeometry x="1320" width="440" height="49" as="geometry">
                        <mxRectangle width="440" height="49" as="alternateBounds"/>
                    </mxGeometry>
                </mxCell>
                <mxCell id="153" value="" style="shape=partialRectangle;html=1;whiteSpace=wrap;collapsible=0;dropTarget=0;pointerEvents=0;fillColor=none;top=0;left=0;bottom=0;right=0;points=[[0,0.5],[1,0.5]];portConstraint=eastwest;fontSize=18;strokeColor=#F01800;fontColor=#000000;" vertex="1" parent="109">
                    <mxGeometry y="267" width="1760" height="46" as="geometry"/>
                </mxCell>
                <mxCell id="154" value="N1" style="shape=partialRectangle;html=1;whiteSpace=wrap;connectable=0;fillColor=none;top=0;left=0;bottom=0;right=0;overflow=hidden;pointerEvents=1;fontSize=18;strokeColor=#F01800;fontColor=#000000;" vertex="1" parent="153">
                    <mxGeometry width="73" height="46" as="geometry">
                        <mxRectangle width="73" height="46" as="alternateBounds"/>
                    </mxGeometry>
                </mxCell>
                <mxCell id="155" value="" style="shape=partialRectangle;html=1;whiteSpace=wrap;connectable=0;fillColor=none;top=0;left=0;bottom=0;right=0;overflow=hidden;pointerEvents=1;fontSize=18;strokeColor=#F01800;fontColor=#000000;" vertex="1" parent="153">
                    <mxGeometry x="73" width="163" height="46" as="geometry">
                        <mxRectangle width="163" height="46" as="alternateBounds"/>
                    </mxGeometry>
                </mxCell>
                <mxCell id="156" value="&lt;font&gt;(Ri&amp;nbsp; Fi) and&lt;/font&gt; &lt;font color=&quot;#3333ff&quot;&gt;(Rf &amp;lt; Fi)&lt;/font&gt; &lt;font&gt;and&amp;nbsp;(Ri&amp;nbsp; Ff)&amp;nbsp;and (Rf&amp;nbsp; Ff)&lt;/font&gt;" style="shape=partialRectangle;html=1;whiteSpace=wrap;connectable=0;fillColor=none;top=0;left=0;bottom=0;right=0;overflow=hidden;pointerEvents=1;fontSize=18;strokeColor=#F01800;fontColor=#000000;" vertex="1" parent="153">
                    <mxGeometry x="236" width="464" height="46" as="geometry">
                        <mxRectangle width="464" height="46" as="alternateBounds"/>
                    </mxGeometry>
                </mxCell>
                <mxCell id="226" value="&lt;span&gt;(Rf &amp;lt; Fi)&lt;/span&gt;" style="shape=partialRectangle;html=1;whiteSpace=wrap;connectable=0;fillColor=none;top=0;left=0;bottom=0;right=0;overflow=hidden;pointerEvents=1;fontSize=18;strokeColor=#F01800;fontColor=#000000;" vertex="1" parent="153">
                    <mxGeometry x="700" width="320" height="46" as="geometry">
                        <mxRectangle width="320" height="46" as="alternateBounds"/>
                    </mxGeometry>
                </mxCell>
                <mxCell id="271" value="&lt;span&gt;(Rf &amp;gt;= Fi)&lt;/span&gt;" style="shape=partialRectangle;html=1;whiteSpace=wrap;connectable=0;fillColor=none;top=0;left=0;bottom=0;right=0;overflow=hidden;pointerEvents=1;fontSize=18;strokeColor=#F01800;fontColor=#000000;" vertex="1" parent="153">
                    <mxGeometry x="1020" width="300" height="46" as="geometry">
                        <mxRectangle width="300" height="46" as="alternateBounds"/>
                    </mxGeometry>
                </mxCell>
                <mxCell id="279" style="shape=partialRectangle;html=1;whiteSpace=wrap;connectable=0;fillColor=none;top=0;left=0;bottom=0;right=0;overflow=hidden;pointerEvents=1;fontSize=18;strokeColor=#F01800;fontColor=#000000;" vertex="1" parent="153">
                    <mxGeometry x="1320" width="440" height="46" as="geometry">
                        <mxRectangle width="440" height="46" as="alternateBounds"/>
                    </mxGeometry>
                </mxCell>
                <mxCell id="227" style="shape=partialRectangle;html=1;whiteSpace=wrap;collapsible=0;dropTarget=0;pointerEvents=0;fillColor=none;top=0;left=0;bottom=0;right=0;points=[[0,0.5],[1,0.5]];portConstraint=eastwest;fontSize=18;strokeColor=#F01800;fontColor=#000000;" vertex="1" parent="109">
                    <mxGeometry y="313" width="1760" height="49" as="geometry"/>
                </mxCell>
                <mxCell id="228" value="N2" style="shape=partialRectangle;html=1;whiteSpace=wrap;connectable=0;fillColor=none;top=0;left=0;bottom=0;right=0;overflow=hidden;pointerEvents=1;fontSize=18;strokeColor=#F01800;fontColor=#000000;" vertex="1" parent="227">
                    <mxGeometry width="73" height="49" as="geometry">
                        <mxRectangle width="73" height="49" as="alternateBounds"/>
                    </mxGeometry>
                </mxCell>
                <mxCell id="229" style="shape=partialRectangle;html=1;whiteSpace=wrap;connectable=0;fillColor=none;top=0;left=0;bottom=0;right=0;overflow=hidden;pointerEvents=1;fontSize=18;strokeColor=#F01800;fontColor=#000000;" vertex="1" parent="227">
                    <mxGeometry x="73" width="163" height="49" as="geometry">
                        <mxRectangle width="163" height="49" as="alternateBounds"/>
                    </mxGeometry>
                </mxCell>
                <mxCell id="230" value="&lt;font&gt;(Ri&amp;nbsp; Fi) and (Rf &amp;gt; Fi) and&amp;nbsp;&lt;/font&gt;&lt;font color=&quot;#0000ff&quot;&gt;(Ri &amp;gt; Ff)&lt;/font&gt;&lt;font&gt;&amp;nbsp;and (Rf&amp;nbsp; Ff)&lt;/font&gt;" style="shape=partialRectangle;html=1;whiteSpace=wrap;connectable=0;fillColor=none;top=0;left=0;bottom=0;right=0;overflow=hidden;pointerEvents=1;fontSize=18;strokeColor=#F01800;fontColor=#000000;" vertex="1" parent="227">
                    <mxGeometry x="236" width="464" height="49" as="geometry">
                        <mxRectangle width="464" height="49" as="alternateBounds"/>
                    </mxGeometry>
                </mxCell>
                <mxCell id="231" value="&lt;span style=&quot;&quot;&gt;(Ri &amp;gt; Ff)&lt;/span&gt;" style="shape=partialRectangle;html=1;whiteSpace=wrap;connectable=0;fillColor=none;top=0;left=0;bottom=0;right=0;overflow=hidden;pointerEvents=1;fontSize=18;strokeColor=#F01800;fontColor=#000000;" vertex="1" parent="227">
                    <mxGeometry x="700" width="320" height="49" as="geometry">
                        <mxRectangle width="320" height="49" as="alternateBounds"/>
                    </mxGeometry>
                </mxCell>
                <mxCell id="272" value="&lt;span style=&quot;&quot;&gt;(Ri &amp;lt;= Ff)&lt;/span&gt;" style="shape=partialRectangle;html=1;whiteSpace=wrap;connectable=0;fillColor=none;top=0;left=0;bottom=0;right=0;overflow=hidden;pointerEvents=1;fontSize=18;strokeColor=#F01800;fontColor=#000000;" vertex="1" parent="227">
                    <mxGeometry x="1020" width="300" height="49" as="geometry">
                        <mxRectangle width="300" height="49" as="alternateBounds"/>
                    </mxGeometry>
                </mxCell>
                <mxCell id="280" style="shape=partialRectangle;html=1;whiteSpace=wrap;connectable=0;fillColor=none;top=0;left=0;bottom=0;right=0;overflow=hidden;pointerEvents=1;fontSize=18;strokeColor=#F01800;fontColor=#000000;" vertex="1" parent="227">
                    <mxGeometry x="1320" width="440" height="49" as="geometry">
                        <mxRectangle width="440" height="49" as="alternateBounds"/>
                    </mxGeometry>
                </mxCell>
                <mxCell id="232" style="shape=partialRectangle;html=1;whiteSpace=wrap;collapsible=0;dropTarget=0;pointerEvents=0;fillColor=none;top=0;left=0;bottom=0;right=0;points=[[0,0.5],[1,0.5]];portConstraint=eastwest;fontSize=18;strokeColor=#F01800;fontColor=#000000;" vertex="1" parent="109">
                    <mxGeometry y="362" width="1760" height="115" as="geometry"/>
                </mxCell>
                <mxCell id="233" style="shape=partialRectangle;html=1;whiteSpace=wrap;connectable=0;fillColor=none;top=0;left=0;bottom=0;right=0;overflow=hidden;pointerEvents=1;fontSize=18;strokeColor=#F01800;fontColor=#000000;" vertex="1" parent="232">
                    <mxGeometry width="73" height="115" as="geometry">
                        <mxRectangle width="73" height="115" as="alternateBounds"/>
                    </mxGeometry>
                </mxCell>
                <mxCell id="234" style="shape=partialRectangle;html=1;whiteSpace=wrap;connectable=0;fillColor=none;top=0;left=0;bottom=0;right=0;overflow=hidden;pointerEvents=1;fontSize=18;strokeColor=#F01800;fontColor=#000000;" vertex="1" parent="232">
                    <mxGeometry x="73" width="163" height="115" as="geometry">
                        <mxRectangle width="163" height="115" as="alternateBounds"/>
                    </mxGeometry>
                </mxCell>
                <mxCell id="235" style="shape=partialRectangle;html=1;whiteSpace=wrap;connectable=0;fillColor=none;top=0;left=0;bottom=0;right=0;overflow=hidden;pointerEvents=1;fontSize=18;strokeColor=#F01800;fontColor=#000000;" vertex="1" parent="232">
                    <mxGeometry x="236" width="464" height="115" as="geometry">
                        <mxRectangle width="464" height="115" as="alternateBounds"/>
                    </mxGeometry>
                </mxCell>
                <mxCell id="236" style="shape=partialRectangle;html=1;whiteSpace=wrap;connectable=0;fillColor=none;top=0;left=0;bottom=0;right=0;overflow=hidden;pointerEvents=1;fontSize=18;strokeColor=#F01800;fontColor=#000000;" vertex="1" parent="232">
                    <mxGeometry x="700" width="320" height="115" as="geometry">
                        <mxRectangle width="320" height="115" as="alternateBounds"/>
                    </mxGeometry>
                </mxCell>
                <mxCell id="273" style="shape=partialRectangle;html=1;whiteSpace=wrap;connectable=0;fillColor=none;top=0;left=0;bottom=0;right=0;overflow=hidden;pointerEvents=1;fontSize=18;strokeColor=#F01800;fontColor=#000000;" vertex="1" parent="232">
                    <mxGeometry x="1020" width="300" height="115" as="geometry">
                        <mxRectangle width="300" height="115" as="alternateBounds"/>
                    </mxGeometry>
                </mxCell>
                <mxCell id="281" style="shape=partialRectangle;html=1;whiteSpace=wrap;connectable=0;fillColor=none;top=0;left=0;bottom=0;right=0;overflow=hidden;pointerEvents=1;fontSize=18;strokeColor=#F01800;fontColor=#000000;" vertex="1" parent="232">
                    <mxGeometry x="1320" width="440" height="115" as="geometry">
                        <mxRectangle width="440" height="115" as="alternateBounds"/>
                    </mxGeometry>
                </mxCell>
                <mxCell id="238" value="&lt;span style=&quot;text-align: center ; text-indent: 0px&quot;&gt;[ (Ri &amp;lt; Fi) and (Rf &amp;gt; Fi) and&amp;nbsp;&lt;/span&gt;&lt;span style=&quot;text-align: center ; text-indent: 0px&quot;&gt;(Rf &amp;lt; Ff&lt;/span&gt;&lt;span style=&quot;text-align: center ; text-indent: 0px&quot;&gt;) &lt;/span&gt;&lt;span style=&quot;text-align: center ; text-indent: 0px&quot;&gt;] or [&amp;nbsp;&lt;/span&gt;&lt;span style=&quot;text-align: center&quot;&gt;(Ri &amp;gt; Fi)&amp;nbsp;&lt;/span&gt;&lt;span style=&quot;text-align: center&quot;&gt;and (Ri &amp;lt; Ff) and (Rf &amp;gt; Ff)&amp;nbsp;&lt;/span&gt;&lt;span style=&quot;text-align: center ; text-indent: 0px&quot;&gt;] or [&amp;nbsp;&lt;/span&gt;&lt;span style=&quot;text-align: center&quot;&gt;(Ri &amp;lt; Fi) a&lt;/span&gt;&lt;span style=&quot;text-align: center&quot;&gt;nd (Rf &amp;gt; Ff)&lt;/span&gt;&lt;span style=&quot;text-align: center ; text-indent: 0px&quot;&gt;&amp;nbsp;] or [&amp;nbsp;&lt;/span&gt;&lt;span style=&quot;text-align: center&quot;&gt;(Ri &amp;gt; Fi) an&lt;/span&gt;&lt;span style=&quot;text-align: center&quot;&gt;d (Rf &amp;lt; Ff)&lt;/span&gt;&lt;span style=&quot;text-align: center ; text-indent: 0px&quot;&gt;&amp;nbsp;] and (Rf &amp;gt;= Fi) and (Ri &amp;lt;= Ff)&lt;/span&gt;" style="text;whiteSpace=wrap;html=1;fontSize=18;fontColor=#000000;fillColor=#E6E6E6;" vertex="1" parent="1">
                    <mxGeometry x="620" y="1302.5" width="1390" height="40" as="geometry"/>
                </mxCell>
                <mxCell id="239" value="" style="shape=curlyBracket;whiteSpace=wrap;html=1;rounded=1;flipH=1;labelBackgroundColor=#F02000;fontSize=18;fontColor=#000000;strokeColor=#000000;fillColor=#FFFFFF;rotation=-90;" vertex="1" parent="1">
                    <mxGeometry x="761.25" y="1137.75" width="20" height="283.5" as="geometry"/>
                </mxCell>
                <mxCell id="240" value="" style="shape=curlyBracket;whiteSpace=wrap;html=1;rounded=1;flipH=1;labelBackgroundColor=#F02000;fontSize=18;fontColor=#000000;strokeColor=#000000;fillColor=#F0F0F0;rotation=-90;" vertex="1" parent="1">
                    <mxGeometry x="1080" y="1133" width="20" height="293" as="geometry"/>
                </mxCell>
                <mxCell id="241" value="" style="shape=curlyBracket;whiteSpace=wrap;html=1;rounded=1;flipH=1;labelBackgroundColor=#F02000;fontSize=18;fontColor=#000000;strokeColor=#000000;fillColor=#FFFFFF;rotation=-90;" vertex="1" parent="1">
                    <mxGeometry x="1348.25" y="1184.75" width="20" height="189.5" as="geometry"/>
                </mxCell>
                <mxCell id="242" value="" style="shape=curlyBracket;whiteSpace=wrap;html=1;rounded=1;flipH=1;labelBackgroundColor=#F02000;fontSize=18;fontColor=#000000;strokeColor=#000000;fillColor=#330000;rotation=-90;" vertex="1" parent="1">
                    <mxGeometry x="1570" y="1184.75" width="20" height="189.5" as="geometry"/>
                </mxCell>
                <mxCell id="244" value="P1" style="text;html=1;align=center;verticalAlign=middle;resizable=0;points=[];autosize=1;strokeColor=none;fillColor=none;fontSize=18;fontColor=#000000;" vertex="1" parent="1">
                    <mxGeometry x="746.5" y="1227.5" width="40" height="30" as="geometry"/>
                </mxCell>
                <mxCell id="245" value="P2" style="text;html=1;align=center;verticalAlign=middle;resizable=0;points=[];autosize=1;strokeColor=none;fillColor=none;fontSize=18;fontColor=#000000;" vertex="1" parent="1">
                    <mxGeometry x="1070" y="1227.5" width="40" height="30" as="geometry"/>
                </mxCell>
                <mxCell id="246" value="P3" style="text;html=1;align=center;verticalAlign=middle;resizable=0;points=[];autosize=1;strokeColor=none;fillColor=none;fontSize=18;fontColor=#000000;" vertex="1" parent="1">
                    <mxGeometry x="1340" y="1227.5" width="40" height="30" as="geometry"/>
                </mxCell>
                <mxCell id="247" value="P4" style="text;html=1;align=center;verticalAlign=middle;resizable=0;points=[];autosize=1;strokeColor=none;fillColor=none;fontSize=18;fontColor=#000000;" vertex="1" parent="1">
                    <mxGeometry x="1560" y="1227.5" width="40" height="30" as="geometry"/>
                </mxCell>
                <mxCell id="282" value="" style="shape=curlyBracket;whiteSpace=wrap;html=1;rounded=1;flipH=1;labelBackgroundColor=#F02000;fontSize=18;fontColor=#000000;strokeColor=#000000;fillColor=#F0F0F0;rotation=90;size=0.42473118279569894;" vertex="1" parent="1">
                    <mxGeometry x="1122.5" y="875" width="46.5" height="1058" as="geometry"/>
                </mxCell>
                <mxCell id="283" value="Positivos" style="text;html=1;align=center;verticalAlign=middle;resizable=0;points=[];autosize=1;strokeColor=none;fillColor=none;fontSize=18;fontColor=#000000;" vertex="1" parent="1">
                    <mxGeometry x="1105" y="1427.5" width="90" height="30" as="geometry"/>
                </mxCell>
                <mxCell id="284" value="" style="shape=curlyBracket;whiteSpace=wrap;html=1;rounded=1;flipH=1;labelBackgroundColor=#F02000;fontSize=18;fontColor=#000000;strokeColor=#000000;fillColor=#FFFFFF;rotation=90;size=0.42473118279569894;" vertex="1" parent="1">
                    <mxGeometry x="1789.37" y="1315.62" width="46.5" height="176.75" as="geometry"/>
                </mxCell>
                <mxCell id="285" value="Negativos" style="text;html=1;align=center;verticalAlign=middle;resizable=0;points=[];autosize=1;strokeColor=none;fillColor=none;fontSize=18;fontColor=#000000;" vertex="1" parent="1">
                    <mxGeometry x="1762.62" y="1426" width="100" height="30" as="geometry"/>
                </mxCell>
                <mxCell id="286" value="N1" style="text;html=1;align=center;verticalAlign=middle;resizable=0;points=[];autosize=1;strokeColor=none;fillColor=none;fontSize=18;fontColor=#000000;" vertex="1" parent="1">
                    <mxGeometry x="1730" y="1257.5" width="40" height="30" as="geometry"/>
                </mxCell>
                <mxCell id="287" value="N2" style="text;html=1;align=center;verticalAlign=middle;resizable=0;points=[];autosize=1;strokeColor=none;fillColor=none;fontSize=18;fontColor=#000000;" vertex="1" parent="1">
                    <mxGeometry x="1850" y="1264.5" width="40" height="30" as="geometry"/>
                </mxCell>
                <mxCell id="289" value="&lt;div&gt;Variables Ingresadas en el filtro&lt;/div&gt;&lt;div&gt;&lt;span&gt;Fi: filtro fecha inicial&lt;/span&gt;&lt;/div&gt;&lt;div&gt;&lt;span&gt;Ff: filtro fecha final&lt;/span&gt;&lt;/div&gt;&lt;div&gt;&lt;br&gt;&lt;/div&gt;&lt;div&gt;&lt;span&gt;Columnas evaluadas en la búsqueda&lt;/span&gt;&lt;/div&gt;&lt;div&gt;&lt;span&gt;Ri: fecha inicio del servicio&lt;/span&gt;&lt;/div&gt;&lt;div&gt;Rf: fecha final del servicio&lt;/div&gt;&lt;div&gt;&lt;br&gt;&lt;/div&gt;&lt;div&gt;El objetivo es que la búsqueda agarre solo a los resultados que contienen una fecha dentro de los limites Fi y Ff (casos P1 P2 P3 P4), pero que no agarre los casos N1 y N2 pues las fechas de esos casos se desbordan&lt;/div&gt;" style="shape=note;whiteSpace=wrap;html=1;backgroundOutline=1;darkOpacity=0.05;labelBackgroundColor=none;fontSize=18;fontColor=#000000;strokeColor=#FFFFFF;fillColor=none;align=left;perimeterSpacing=3;strokeWidth=1;" vertex="1" parent="1">
                    <mxGeometry x="70" y="80" width="350" height="390" as="geometry"/>
                </mxCell>
                <mxCell id="290" value="&lt;span style=&quot;font-size: 36px&quot;&gt;Expresión booleana final&lt;/span&gt;" style="text;html=1;resizable=0;autosize=1;align=center;verticalAlign=middle;points=[];fillColor=none;strokeColor=none;rounded=0;fontColor=#000000;" vertex="1" parent="1">
                    <mxGeometry x="310" y="1170" width="410" height="30" as="geometry"/>
                </mxCell>
            </root>
        </mxGraphModel>
    </diagram>
</mxfile>